<mxfile host="Electron" modified="2023-09-18T22:16:11.002Z" agent="Mozilla/5.0 (Windows NT 10.0; Win64; x64) AppleWebKit/537.36 (KHTML, like Gecko) draw.io/21.7.5 Chrome/114.0.5735.289 Electron/25.8.1 Safari/537.36" etag="AyWrvLp_1eOxX-NwtT_X" version="21.7.5" type="device">
  <diagram name="Page-1" id="929967ad-93f9-6ef4-fab6-5d389245f69c">
    <mxGraphModel dx="1270" dy="614" grid="1" gridSize="10" guides="1" tooltips="1" connect="1" arrows="1" fold="1" page="1" pageScale="1.5" pageWidth="1169" pageHeight="826" background="none" math="0" shadow="0">
      <root>
        <mxCell id="0" style=";html=1;" />
        <mxCell id="1" style=";html=1;" parent="0" />
        <mxCell id="DLqHv4uXnFY5nO-2j1tM-13" value="CustomerProvider" style="html=1;whiteSpace=wrap;" vertex="1" parent="1">
          <mxGeometry x="290" y="270" width="110" height="50" as="geometry" />
        </mxCell>
        <mxCell id="DLqHv4uXnFY5nO-2j1tM-14" value="TicketProvider" style="html=1;whiteSpace=wrap;" vertex="1" parent="1">
          <mxGeometry x="480" y="270" width="110" height="50" as="geometry" />
        </mxCell>
        <mxCell id="DLqHv4uXnFY5nO-2j1tM-15" value="Customer" style="html=1;whiteSpace=wrap;" vertex="1" parent="1">
          <mxGeometry x="480" y="30" width="110" height="50" as="geometry" />
        </mxCell>
        <mxCell id="DLqHv4uXnFY5nO-2j1tM-16" value="BusStation" style="html=1;whiteSpace=wrap;" vertex="1" parent="1">
          <mxGeometry x="570" y="390" width="110" height="50" as="geometry" />
        </mxCell>
        <mxCell id="DLqHv4uXnFY5nO-2j1tM-17" value="DataBase" style="html=1;whiteSpace=wrap;" vertex="1" parent="1">
          <mxGeometry x="410" y="390" width="110" height="50" as="geometry" />
        </mxCell>
        <mxCell id="DLqHv4uXnFY5nO-2j1tM-18" value="MobileApp" style="html=1;whiteSpace=wrap;" vertex="1" parent="1">
          <mxGeometry x="480" y="130" width="110" height="50" as="geometry" />
        </mxCell>
        <mxCell id="DLqHv4uXnFY5nO-2j1tM-20" value="PaymentProvider" style="html=1;whiteSpace=wrap;" vertex="1" parent="1">
          <mxGeometry x="690" y="270" width="110" height="50" as="geometry" />
        </mxCell>
        <mxCell id="DLqHv4uXnFY5nO-2j1tM-21" value="Ticket" style="html=1;whiteSpace=wrap;" vertex="1" parent="1">
          <mxGeometry x="410" y="510" width="110" height="50" as="geometry" />
        </mxCell>
        <mxCell id="DLqHv4uXnFY5nO-2j1tM-31" value="" style="endArrow=classic;html=1;rounded=0;exitX=0.5;exitY=0;exitDx=0;exitDy=0;entryX=0.5;entryY=1;entryDx=0;entryDy=0;" edge="1" parent="1" source="DLqHv4uXnFY5nO-2j1tM-21" target="DLqHv4uXnFY5nO-2j1tM-17">
          <mxGeometry width="50" height="50" relative="1" as="geometry">
            <mxPoint x="470" y="490" as="sourcePoint" />
            <mxPoint x="600" y="250" as="targetPoint" />
          </mxGeometry>
        </mxCell>
        <mxCell id="DLqHv4uXnFY5nO-2j1tM-32" value="" style="endArrow=none;html=1;rounded=0;exitX=0.5;exitY=0;exitDx=0;exitDy=0;entryX=0.5;entryY=0;entryDx=0;entryDy=0;" edge="1" parent="1" source="DLqHv4uXnFY5nO-2j1tM-17" target="DLqHv4uXnFY5nO-2j1tM-16">
          <mxGeometry width="50" height="50" relative="1" as="geometry">
            <mxPoint x="550" y="300" as="sourcePoint" />
            <mxPoint x="600" y="250" as="targetPoint" />
            <Array as="points">
              <mxPoint x="465" y="360" />
              <mxPoint x="625" y="360" />
            </Array>
          </mxGeometry>
        </mxCell>
        <mxCell id="DLqHv4uXnFY5nO-2j1tM-33" value="" style="endArrow=classic;html=1;rounded=0;" edge="1" parent="1">
          <mxGeometry width="50" height="50" relative="1" as="geometry">
            <mxPoint x="540" y="360" as="sourcePoint" />
            <mxPoint x="540" y="320" as="targetPoint" />
          </mxGeometry>
        </mxCell>
        <mxCell id="DLqHv4uXnFY5nO-2j1tM-38" value="" style="endArrow=classic;html=1;rounded=0;exitX=0.5;exitY=0;exitDx=0;exitDy=0;entryX=0.5;entryY=1;entryDx=0;entryDy=0;" edge="1" parent="1" source="DLqHv4uXnFY5nO-2j1tM-18" target="DLqHv4uXnFY5nO-2j1tM-15">
          <mxGeometry width="50" height="50" relative="1" as="geometry">
            <mxPoint x="550" y="120" as="sourcePoint" />
            <mxPoint x="590" y="210" as="targetPoint" />
          </mxGeometry>
        </mxCell>
        <mxCell id="DLqHv4uXnFY5nO-2j1tM-39" value="" style="endArrow=none;html=1;rounded=0;exitX=0.5;exitY=0;exitDx=0;exitDy=0;entryX=0.5;entryY=0;entryDx=0;entryDy=0;" edge="1" parent="1" source="DLqHv4uXnFY5nO-2j1tM-13" target="DLqHv4uXnFY5nO-2j1tM-20">
          <mxGeometry width="50" height="50" relative="1" as="geometry">
            <mxPoint x="540" y="300" as="sourcePoint" />
            <mxPoint x="760" y="260" as="targetPoint" />
            <Array as="points">
              <mxPoint x="345" y="240" />
              <mxPoint x="745" y="240" />
            </Array>
          </mxGeometry>
        </mxCell>
        <mxCell id="DLqHv4uXnFY5nO-2j1tM-41" value="" style="endArrow=none;html=1;rounded=0;" edge="1" parent="1">
          <mxGeometry width="50" height="50" relative="1" as="geometry">
            <mxPoint x="540" y="270" as="sourcePoint" />
            <mxPoint x="540" y="240" as="targetPoint" />
          </mxGeometry>
        </mxCell>
        <mxCell id="DLqHv4uXnFY5nO-2j1tM-42" value="" style="endArrow=classic;html=1;rounded=0;" edge="1" parent="1">
          <mxGeometry width="50" height="50" relative="1" as="geometry">
            <mxPoint x="540" y="240" as="sourcePoint" />
            <mxPoint x="540" y="180" as="targetPoint" />
          </mxGeometry>
        </mxCell>
      </root>
    </mxGraphModel>
  </diagram>
</mxfile>
